<svg width="136" height="42" viewBox="0 0 136 42" fill="none" xmlns="http://www.w3.org/2000/svg">
<path d="M29.2676 0C33.7844 9.63215e-10 36.0433 -0.000157636 37.7686 0.878906C39.2861 1.65219 40.5197 2.88675 41.293 4.4043C42.1719 6.12957 42.1719 8.38845 42.1719 12.9053V28.7676C42.1719 33.2844 42.172 35.5433 41.293 37.2686C40.5197 38.7859 39.2859 40.0197 37.7686 40.793C36.0433 41.672 33.7844 41.6719 29.2676 41.6719H13.4053C8.88844 41.6719 6.62957 41.6719 4.9043 40.793C3.38675 40.0197 2.15219 38.7861 1.37891 37.2686C0.499842 35.5433 0.5 33.2844 0.5 28.7676V12.9053C0.5 8.3885 0.500025 6.12956 1.37891 4.4043C2.15218 2.88667 3.38667 1.65218 4.9043 0.878906C6.62956 2.53408e-05 8.8885 0 13.4053 0H29.2676ZM14.833 18.2256C14.1285 18.2256 13.4375 18.3131 12.7607 18.4893C12.1493 18.6484 11.5341 18.8421 10.915 19.0693C10.7953 19.1133 10.7168 19.2279 10.7168 19.3555V30.7393C10.7169 30.9619 10.9472 31.1119 11.1562 31.0352C11.6184 30.8655 12.1252 30.7343 12.6768 30.6436C13.4092 30.523 14.1284 30.4629 14.833 30.4629C15.8262 30.4629 16.7932 30.5788 17.7334 30.8105C18.5189 31.0042 19.2933 31.2794 20.0566 31.6348C20.2642 31.7312 20.5065 31.5823 20.5068 31.3535V24.1055C20.5068 24.0177 20.4689 23.9334 20.4033 23.875C18.2441 21.9566 16.5925 20.1586 15.4492 18.4814C15.4231 18.4431 15.3967 18.4045 15.3711 18.3662C15.3165 18.2847 15.2269 18.2326 15.1289 18.2295C15.0305 18.2265 14.9316 18.2256 14.833 18.2256ZM27.1367 18.2295C27.0385 18.2325 26.9482 18.2846 26.8936 18.3662C26.868 18.4044 26.8425 18.4431 26.8164 18.4814C25.6731 20.1586 24.0217 21.9565 21.8623 23.875C21.7966 23.9334 21.7588 24.0176 21.7588 24.1055V31.3535C21.7591 31.5824 22.0014 31.7314 22.209 31.6348C22.9723 31.2795 23.7467 31.0041 24.5322 30.8105C25.4724 30.5788 26.4394 30.4629 27.4326 30.4629C28.1371 30.4629 28.8556 30.5231 29.5879 30.6436C30.1396 30.7344 30.6471 30.8654 31.1094 31.0352C31.3183 31.1115 31.5487 30.9618 31.5488 30.7393V19.3555C31.5488 19.2281 31.4701 19.1134 31.3506 19.0693C30.7316 18.8421 30.1163 18.6484 29.5049 18.4893C28.8282 18.3131 28.1372 18.2256 27.4326 18.2256C27.334 18.2256 27.2352 18.2265 27.1367 18.2295ZM21.1455 7.79688C19.5224 7.79688 18.0936 8.3655 16.8604 9.50293C15.6272 10.6403 15.0107 12.168 15.0107 14.085C15.0109 15.3628 15.5184 16.7525 16.5342 18.2539C17.5502 19.7556 19.0879 21.3819 21.1455 23.1328C23.203 21.382 24.7399 19.7555 25.7559 18.2539C26.7716 16.7525 27.2792 15.3628 27.2793 14.085C27.2793 12.168 26.6629 10.6404 25.4297 9.50293C24.1965 8.3656 22.7684 7.79697 21.1455 7.79688ZM21.0674 11.8291C22.1808 11.8292 23.0839 12.7322 23.084 13.8457C23.084 14.9592 22.1809 15.8622 21.0674 15.8623C19.9538 15.8623 19.0508 14.9593 19.0508 13.8457C19.0509 12.7322 19.9538 11.8291 21.0674 11.8291Z" fill="#6C4122"/>
<path d="M51.8012 20.4019C50.5302 20.4019 49.4326 20.1339 48.5083 19.598C47.5895 19.0564 46.8825 18.2915 46.3873 17.3033C45.8921 16.3095 45.6445 15.1399 45.6445 13.7944C45.6445 12.4712 45.8921 11.3099 46.3873 10.3105C46.888 9.30557 47.5867 8.52394 48.4835 7.96564C49.3803 7.40175 50.4339 7.1198 51.6444 7.1198C52.4256 7.1198 53.1629 7.24821 53.8561 7.50503C54.5549 7.75627 55.1711 8.14709 55.7048 8.67748C56.244 9.20787 56.6676 9.88342 56.9757 10.7041C57.2838 11.5193 57.4379 12.4907 57.4379 13.6185V14.5481H47.0475V12.5047H54.5741C54.5686 11.924 54.4448 11.4076 54.2028 10.9554C53.9607 10.4976 53.6223 10.1374 53.1877 9.87505C52.7585 9.61264 52.2578 9.48144 51.6856 9.48144C51.0749 9.48144 50.5385 9.63218 50.0763 9.93367C49.6142 10.2296 49.2538 10.6204 48.9952 11.1061C48.7421 11.5863 48.6128 12.1139 48.6073 12.6889V14.4727C48.6073 15.2208 48.7421 15.8629 49.0117 16.3989C49.2813 16.9293 49.6582 17.3368 50.1423 17.6216C50.6265 17.9007 51.1932 18.0403 51.8424 18.0403C52.2771 18.0403 52.6705 17.9789 53.0226 17.856C53.3747 17.7276 53.6801 17.5406 53.9387 17.2949C54.1973 17.0493 54.3926 16.745 54.5246 16.3821L57.3141 16.7003C57.138 17.4485 56.8024 18.1017 56.3072 18.66C55.8176 19.2127 55.1904 19.6426 54.4256 19.9497C53.6608 20.2512 52.786 20.4019 51.8012 20.4019Z" fill="#6C4122"/>
<path d="M61.0937 12.6135V20.1507H58.1061V7.28729H60.9616V9.47306H61.1102C61.4018 8.75285 61.8667 8.18058 62.5049 7.75627C63.1486 7.33196 63.9437 7.1198 64.89 7.1198C65.7648 7.1198 66.5268 7.30963 67.176 7.68927C67.8308 8.06892 68.3369 8.61885 68.6946 9.33907C69.0577 10.0593 69.2365 10.933 69.231 11.9603V20.1507H66.2435V12.4293C66.2435 11.5695 66.0234 10.8967 65.5832 10.411C65.1486 9.92529 64.5461 9.68243 63.7758 9.68243C63.2532 9.68243 62.7882 9.79967 62.3811 10.0342C61.9795 10.2631 61.6631 10.5953 61.432 11.0307C61.2064 11.4662 61.0937 11.9938 61.0937 12.6135Z" fill="#6C4122"/>
<path d="M75.9383 20.4019C74.6728 20.4019 73.5862 20.12 72.6784 19.5561C71.7761 18.9922 71.0801 18.2134 70.5904 17.2196C70.1062 16.2202 69.8642 15.0701 69.8642 13.7692C69.8642 12.4628 70.1117 11.3099 70.6069 10.3105C71.1021 9.30557 71.8008 8.52394 72.7031 7.96564C73.611 7.40175 74.6838 7.1198 75.9218 7.1198C76.9506 7.1198 77.8612 7.31242 78.6535 7.69765C79.4512 8.0773 80.0867 8.61606 80.5599 9.31395C81.033 10.0062 81.3026 10.8158 81.3687 11.7426H78.5132C78.3976 11.1229 78.1225 10.6064 77.6879 10.1933C77.2587 9.77455 76.6838 9.56519 75.963 9.56519C75.3523 9.56519 74.8159 9.73268 74.3537 10.0677C73.8916 10.3971 73.5312 10.8716 73.2726 11.4913C73.0195 12.1111 72.893 12.8536 72.893 13.719C72.893 14.5955 73.0195 15.3492 73.2726 15.9801C73.5257 16.6054 73.8806 17.0884 74.3372 17.4289C74.7994 17.7639 75.3413 17.9314 75.963 17.9314C76.4032 17.9314 76.7966 17.8477 77.1432 17.6802C77.4953 17.5071 77.7897 17.2587 78.0262 16.9348C78.2628 16.611 78.4251 16.2174 78.5132 15.754H81.3687C81.2971 16.6641 81.033 17.4708 80.5764 18.1743C80.1197 18.8722 79.498 19.4193 78.7112 19.8157C77.9245 20.2065 77.0001 20.4019 75.9383 20.4019Z" fill="#6C4122"/>
<path d="M87.492 20.4019C86.2541 20.4019 85.1812 20.1256 84.2734 19.5728C83.3656 19.0201 82.6614 18.2469 82.1607 17.2531C81.6655 16.2593 81.4179 15.098 81.4179 13.7692C81.4179 12.4405 81.6655 11.2764 82.1607 10.277C82.6614 9.27766 83.3656 8.50161 84.2734 7.94889C85.1812 7.39616 86.2541 7.1198 87.492 7.1198C88.73 7.1198 89.8028 7.39616 90.7107 7.94889C91.6185 8.50161 92.32 9.27766 92.8151 10.277C93.3158 11.2764 93.5662 12.4405 93.5662 13.7692C93.5662 15.098 93.3158 16.2593 92.8151 17.2531C92.32 18.2469 91.6185 19.0201 90.7107 19.5728C89.8028 20.1256 88.73 20.4019 87.492 20.4019ZM87.5085 17.9733C88.1798 17.9733 88.741 17.7863 89.1921 17.4122C89.6433 17.0325 89.9789 16.5245 90.199 15.888C90.4246 15.2515 90.5374 14.5425 90.5374 13.7609C90.5374 12.9736 90.4246 12.2618 90.199 11.6253C89.9789 10.9833 89.6433 10.4724 89.1921 10.0928C88.741 9.71314 88.1798 9.52331 87.5085 9.52331C86.8208 9.52331 86.2486 9.71314 85.792 10.0928C85.3408 10.4724 85.0024 10.9833 84.7768 11.6253C84.5568 12.2618 84.4467 12.9736 84.4467 13.7609C84.4467 14.5425 84.5568 15.2515 84.7768 15.888C85.0024 16.5245 85.3408 17.0325 85.792 17.4122C86.2486 17.7863 86.8208 17.9733 87.5085 17.9733Z" fill="#6C4122"/>
<path d="M97.2302 12.6135V20.1507H94.2426V7.28729H97.0981V9.47306H97.2467C97.5383 8.75285 98.0032 8.18058 98.6414 7.75627C99.2851 7.33196 100.08 7.1198 101.027 7.1198C101.901 7.1198 102.663 7.30963 103.313 7.68927C103.967 8.06892 104.473 8.61885 104.831 9.33907C105.194 10.0593 105.373 10.933 105.368 11.9603V20.1507H102.38V12.4293C102.38 11.5695 102.16 10.8967 101.72 10.411C101.285 9.92529 100.683 9.68243 99.9124 9.68243C99.3897 9.68243 98.9248 9.79967 98.5176 10.0342C98.116 10.2631 97.7996 10.5953 97.5686 11.0307C97.343 11.4662 97.2302 11.9938 97.2302 12.6135Z" fill="#6C4122"/>
<path d="M112.875 7.28729V9.63218H105.588V7.28729H112.875ZM107.387 4.20544H110.375V16.2816C110.375 16.6892 110.435 17.0018 110.556 17.2196C110.683 17.4317 110.848 17.5769 111.051 17.6551C111.255 17.7332 111.481 17.7723 111.728 17.7723C111.915 17.7723 112.086 17.7583 112.24 17.7304C112.399 17.7025 112.52 17.6774 112.603 17.6551L113.106 20.0251C112.947 20.0809 112.719 20.1423 112.421 20.2093C112.13 20.2763 111.772 20.3154 111.349 20.3266C110.6 20.3489 109.926 20.2344 109.327 19.9832C108.727 19.7264 108.251 19.33 107.899 18.794C107.552 18.258 107.382 17.5881 107.387 16.7841V4.20544Z" fill="#6C4122"/>
<path d="M113.515 20.1507V7.28729H116.411V9.43119H116.543C116.775 8.68864 117.171 8.11638 117.732 7.7144C118.299 7.30683 118.945 7.10305 119.671 7.10305C119.836 7.10305 120.021 7.11143 120.224 7.12817C120.433 7.13934 120.607 7.15888 120.744 7.1868V9.97554C120.618 9.93088 120.417 9.89179 120.142 9.8583C119.872 9.81921 119.611 9.79967 119.358 9.79967C118.813 9.79967 118.323 9.91971 117.889 10.1598C117.46 10.3943 117.121 10.7209 116.874 11.1396C116.626 11.5583 116.502 12.0413 116.502 12.5884V20.1507H113.515Z" fill="#6C4122"/>
<path d="M125.96 20.4019C124.689 20.4019 123.591 20.1339 122.667 19.598C121.748 19.0564 121.041 18.2915 120.546 17.3033C120.051 16.3095 119.803 15.1399 119.803 13.7944C119.803 12.4712 120.051 11.3099 120.546 10.3105C121.047 9.30557 121.745 8.52394 122.642 7.96564C123.539 7.40175 124.593 7.1198 125.803 7.1198C126.584 7.1198 127.321 7.24821 128.015 7.50503C128.713 7.75627 129.33 8.14709 129.863 8.67748C130.403 9.20787 130.826 9.88342 131.134 10.7041C131.442 11.5193 131.596 12.4907 131.596 13.6185V14.5481H121.206V12.5047H128.733C128.727 11.924 128.603 11.4076 128.361 10.9554C128.119 10.4976 127.781 10.1374 127.346 9.87505C126.917 9.61264 126.416 9.48144 125.844 9.48144C125.234 9.48144 124.697 9.63218 124.235 9.93367C123.773 10.2296 123.412 10.6204 123.154 11.1061C122.901 11.5863 122.771 12.1139 122.766 12.6889V14.4727C122.766 15.2208 122.901 15.8629 123.17 16.3989C123.44 16.9293 123.817 17.3368 124.301 17.6216C124.785 17.9007 125.352 18.0403 126.001 18.0403C126.436 18.0403 126.829 17.9789 127.181 17.856C127.533 17.7276 127.839 17.5406 128.097 17.2949C128.356 17.0493 128.551 16.745 128.683 16.3821L131.473 16.7003C131.297 17.4485 130.961 18.1017 130.466 18.66C129.976 19.2127 129.349 19.6426 128.584 19.9497C127.819 20.2512 126.945 20.4019 125.96 20.4019Z" fill="#6C4122"/>
<path d="M132.265 20.1507V7.28729H135.252V20.1507H132.265ZM133.767 5.46163C133.294 5.46163 132.886 5.30251 132.545 4.98428C132.204 4.66046 132.034 4.27244 132.034 3.82021C132.034 3.3624 132.204 2.97437 132.545 2.65614C132.886 2.33232 133.294 2.17041 133.767 2.17041C134.245 2.17041 134.653 2.33232 134.988 2.65614C135.329 2.97437 135.5 3.3624 135.5 3.82021C135.5 4.27244 135.329 4.66046 134.988 4.98428C134.653 5.30251 134.245 5.46163 133.767 5.46163Z" fill="#6C4122"/>
<path d="M49.0865 39.5015C48.9413 37.4024 48.7547 35.3033 48.6095 33.1835C46.349 32.2482 45.4987 29.9413 45.6646 27.3226L47.7385 27.4058C47.6555 28.6112 47.8007 29.7543 48.4229 30.544C48.3399 29.11 48.2984 27.6552 48.4851 26.2211C48.7754 23.8311 50.5382 22.1269 52.9232 22.1269C53.1513 22.1269 53.3794 22.1476 53.6075 22.1684C56.822 22.5841 58.5226 25.2443 58.1286 28.3618C57.7345 31.2714 55.868 32.7886 53.1928 33.3705C52.384 33.5576 51.5544 33.6615 50.7249 33.6199C50.8493 35.5112 51.0152 37.4024 51.1396 39.3145L49.0865 39.5015ZM50.5797 31.5208C51.3055 31.5832 52.0314 31.5 52.7573 31.3546C54.5823 30.9389 55.8058 30.0868 56.0547 28.0916C56.3243 26.1172 55.4118 24.4961 53.3379 24.2259C51.6996 24.0181 50.7249 24.9949 50.5382 26.4913C50.3101 28.1747 50.4553 29.8374 50.5797 31.5208Z" fill="#6C4122"/>
<path d="M63.6828 35.241C60.4683 35.241 58.1248 33.2043 58.1248 29.9205C58.1248 27.0317 59.9291 25.1404 62.8325 25.1404C63.3717 25.1404 63.9109 25.2028 64.4501 25.3067L64.0768 27.3434C63.662 27.2603 63.2473 27.2187 62.8325 27.2187C61.0697 27.2187 60.1987 28.1955 60.1987 29.9205C60.1987 32.0612 61.6297 33.1627 63.6828 33.1627C66.0885 33.1627 67.6439 31.2299 67.6439 28.9021C67.6439 26.3666 66.1714 24.3299 63.4339 24.3299C62.8118 24.3299 62.2103 24.413 61.6089 24.5585L61.1527 22.5217C61.8993 22.3555 62.6666 22.2516 63.4339 22.2516C67.2706 22.2516 69.7177 25.1612 69.7177 28.9021C69.7177 32.3937 67.2498 35.241 63.6828 35.241Z" fill="#6C4122"/>
<path d="M72.0442 35.1163C70.5095 35.1163 69.9496 33.6823 69.9496 32.3521C69.9496 30.253 71.028 27.4265 72.2723 25.7431C71.9405 25.1612 71.5257 24.6416 70.945 24.2467L72.1479 22.5425C72.7908 22.9997 73.33 23.5817 73.7447 24.2259C75.5905 22.7296 77.8717 22.1476 80.2152 22.1476V24.2259C77.8717 24.1844 76.026 24.7663 74.5743 26.0756C74.9269 27.1564 75.072 28.3202 75.072 29.4425C75.072 31.3546 74.6158 35.1163 72.0442 35.1163ZM72.0649 33.329C72.9567 33.329 73.1641 30.544 73.1641 29.8997C73.1641 29.297 73.1226 28.6735 73.0189 28.05C72.3138 29.2555 71.7124 30.9597 71.7124 32.3521C71.7124 32.5808 71.7124 33.329 72.0649 33.329Z" fill="#6C4122"/>
<path d="M87.5774 35.2202C85.3376 34.9292 83.409 33.4121 83.72 30.9389C84.0726 28.3202 86.5405 27.4681 88.8425 27.4681C90.1075 27.4681 91.3311 27.7383 92.534 28.0708C92.2851 25.8886 91.02 24.3922 88.7803 24.3922C87.2871 24.3922 85.7317 25.0988 84.5081 25.8678L83.3882 24.122C84.9644 23.1244 86.8516 22.3139 88.7388 22.3139C92.4717 22.3139 94.6493 25.182 94.6286 28.7774C95.2092 28.9853 95.7692 29.1931 96.3499 29.4217L95.5618 31.3546C95.1263 31.1883 94.6908 31.022 94.2553 30.8558C93.3842 33.3497 90.9578 35.2618 88.2825 35.2618C88.0544 35.2618 87.8055 35.241 87.5774 35.2202ZM87.847 33.1419C89.7757 33.3913 91.6629 31.9573 92.3058 30.1699C91.1652 29.8374 89.9831 29.5672 88.7803 29.5672C87.4945 29.5672 85.9598 29.879 85.7939 31.2091C85.628 32.4768 86.7893 33.0172 87.847 33.1419Z" fill="#6C4122"/>
<path d="M96.9629 34.9708C96.8593 31.1675 96.8178 27.3434 96.6519 23.5401L98.7257 23.457C98.8916 27.2603 98.9331 31.0636 99.0368 34.8877L96.9629 34.9708ZM97.6266 22.8958C96.9215 22.8958 96.3615 22.3555 96.3615 21.6488C96.3615 20.963 96.9215 20.4019 97.6058 20.4019C98.311 20.4019 98.8709 20.9422 98.8709 21.6488C98.8709 22.3347 98.311 22.8958 97.6266 22.8958Z" fill="#6C4122"/>
</svg>
