<svg width="25" height="25" viewBox="0 0 25 25" fill="none" xmlns="http://www.w3.org/2000/svg">
<mask id="mask0_71_5613" style="mask-type:alpha" maskUnits="userSpaceOnUse" x="0" y="0" width="25" height="25">
<rect x="0.5" y="0.836014" width="24" height="24" fill="#D9D9D9"/>
</mask>
<g mask="url(#mask0_71_5613)">
<path d="M12.4997 18.0053C12.6139 18.0053 12.7203 17.9876 12.819 17.9523C12.9177 17.9171 13.0109 17.8625 13.0987 17.7885C13.5674 17.3599 14.0129 16.9411 14.4352 16.5323C14.8577 16.1233 15.2272 15.7219 15.5435 15.3283C15.8598 14.9346 16.1137 14.5519 16.305 14.18C16.4963 13.8084 16.592 13.4475 16.592 13.0975C16.592 12.4527 16.3721 11.9178 15.9322 11.4928C15.4922 11.0678 14.9643 10.8553 14.3485 10.8553C13.9673 10.8553 13.62 10.9332 13.3065 11.089C12.993 11.2447 12.7241 11.445 12.4997 11.69C12.2882 11.445 12.019 11.2447 11.692 11.089C11.3652 10.9332 11.0255 10.8553 10.673 10.8553C10.0565 10.8553 9.52799 11.0674 9.08749 11.4918C8.64699 11.9161 8.42674 12.4502 8.42674 13.094C8.42674 13.4452 8.52066 13.8076 8.70849 14.1813C8.89632 14.5549 9.14857 14.9379 9.46524 15.3303C9.78191 15.7226 10.1509 16.1236 10.5722 16.5333C10.9936 16.9428 11.4367 17.3597 11.9017 17.784C11.9889 17.861 12.0818 17.9171 12.1805 17.9523C12.2792 17.9876 12.3856 18.0053 12.4997 18.0053ZM6.80749 21.336C6.31032 21.336 5.88474 21.159 5.53074 20.805C5.17674 20.451 4.99974 20.0254 4.99974 19.5283V12.0763L3.73049 13.063C3.55482 13.1912 3.36891 13.2418 3.17274 13.2148C2.97674 13.1879 2.81457 13.0867 2.68624 12.911C2.55807 12.7354 2.50841 12.5494 2.53724 12.3533C2.56607 12.1571 2.66324 11.9949 2.82874 11.8668L11.3902 5.29952C11.5564 5.17902 11.734 5.0886 11.923 5.02827C12.112 4.9681 12.3047 4.93802 12.5012 4.93802C12.6977 4.93802 12.889 4.9681 13.075 5.02827C13.261 5.0886 13.4359 5.17902 13.5997 5.29952L22.1862 11.8668C22.3516 11.9949 22.4462 12.1571 22.47 12.3533C22.4937 12.5494 22.4414 12.7359 22.3132 12.9128C22.1849 13.0769 22.0227 13.1725 21.8267 13.1995C21.6306 13.2264 21.4497 13.1757 21.2842 13.0475L19.9997 12.0763V19.5283C19.9997 20.0254 19.8227 20.451 19.4687 20.805C19.1147 21.159 18.6892 21.336 18.192 21.336H6.80749Z" fill="#2B619E"/>
</g>
</svg>
